<svg xmlns="http://www.w3.org/2000/svg" viewBox="0 0 32 32">
    <path d="M29.16 10.47c-1.25-.33-4.18-.32-8.48-.44.2-.93.25-1.78.25-3.28C20.93 3.15 18.3 0 16 0c-1.63 0-2.98 1.33-3 2.98-.02 2-.65 5.5-4 7.25l-1.05.53.05.04c-.53-.45-1.25-.8-2-.8H3c-1.65 0-3 1.35-3 3v16c0 1.65 1.35 3 3 3h3c1.2 0 2.2-.72 2.67-1.73 0 0 .03 0 .04.02.08 0 .16.02.25.05H9c.58.15 1.7.42 4.05.96.5.13 3.2.7 5.98.7h5.46c1.66 0 2.86-.64 3.58-1.93 0-.02.24-.47.42-1.07.15-.46.2-1.1.03-1.76 1.07-.74 1.42-1.86 1.64-2.58.38-1.2.27-2.1 0-2.73.6-.57 1.12-1.44 1.34-2.77.14-.82 0-1.67-.38-2.37.57-.65.82-1.45.85-2.2l.02-.2v-.5c0-1.26-.88-2.87-2.84-3.43zM7 29c0 .55-.45 1-1 1H3c-.55 0-1-.45-1-1V13c0-.55.45-1 1-1h3c.55 0 1 .45 1 1v16zm22.98-14.46c-.02.5-.23 1.46-1.98 1.46h-2c-.28 0-.5.22-.5.5s.22.5.5.5h1.94s1.7 1.24 1.6 1.84c-.13.75-.48 2.16-2.16 2.16H25c-.28 0-.5.22-.5.5s.22.5.5.5h1.97c1.7 0 1.54 1.3 1.3 2.06-.32 1-.52 1.94-2.64 1.94h-1.64c-.28 0-.5.22-.5.5s.22.5.5.5h1.56c1.1 0 1.15 1.03 1.03 1.4-.13.4-.28.7-.3.73-.3.54-.78.87-1.8.87h-5.47c-2.75 0-5.47-.62-5.54-.64-4.17-.96-4.4-1.03-4.65-1.1 0 0-.84-.15-.84-.9v-13.8c0-.47.3-.9.8-1.04l.2-.07c4.57-1.9 5.96-6.04 6-9.45 0-.48.38-1 1-1 1.06 0 2.93 2.12 2.93 4.75 0 2.37-.1 2.78-.93 5.25 10 0 9.93.14 10.8.38 1.1.3 1.2 1.2 1.2 1.53 0 .35 0 .3-.02.63z"/>
    <path d="M4.5 26c-.83 0-1.5.67-1.5 1.5S3.67 29 4.5 29 6 28.33 6 27.5 5.33 26 4.5 26zm0 2c-.28 0-.5-.23-.5-.5s.22-.5.5-.5.5.23.5.5-.22.5-.5.5z"/>
</svg>
