<svg xmlns="http://www.w3.org/2000/svg" width="612" height="612" viewBox="0 0 612 612">
  <path d="M587.57 186.88C555.3 111.66 500.47 56.95 424.62 24.6 386.72 8.43 347 .17 305.5.17c-41.5 0-80.92 8.18-118.8 24.43-75.2 32.26-130.28 86.93-162.6 162.28C7.9 224.63 0 264.18 0 305.66c0 41.5 7.9 81.37 24.1 119.13 32.31 75.34 87.4 130.34 162.6 162.6 37.9 16.26 77.3 24.43 118.8 24.43s81.2-8.26 119.12-24.42c75.85-32.34 130.68-87.4 162.95-162.6C603.82 386.9 612 347.15 612 305.65c0-41.48-8.17-80.9-24.43-118.78zm-48.85 253.97c-24.02 41.2-56.92 73.88-98.37 98.04-41.2 24-86.33 36.13-134.85 36.13-36.47 0-71.27-7.03-104.4-21.42-33.12-14.37-61.73-33.28-85.66-57.2-23.92-23.93-42.97-52.8-57.2-86-14.2-33.06-21.1-68.26-21.1-104.73 0-48.52 11.93-93.43 35.82-134.5C96.93 129.92 129.84 97.2 171 73.1c41.14-24.1 85.98-36.15 134.5-36.15 48.52 0 93.65 12.13 134.84 36.15 41.45 24.16 74.3 56.88 98.38 98.04 24.1 41.15 36.13 86 36.13 134.5 0 48.52-11.96 93.74-36.13 135.2z"/>
  <path d="M324.9 303V129.65c0-10.37-9.03-18.74-19.4-18.74-9.7 0-18.4 8.37-18.4 18.74v176c0 .34.66 1.68.66 2.68-.67 6.03 1 11.05 5.02 15.06l100.06 100.05c6.7 6.7 19.07 6.7 25.76 0 7.7-7.7 7.2-18.86 0-26.1L324.9 303z"/>
</svg>
